<svg width="147" height="32" viewBox="0 0 147 32" fill="none" xmlns="http://www.w3.org/2000/svg">
<g clip-path="url(#clip0_3_2)">
<path d="M126.392 31.7954V8.74291H119.314V9.76602C118.189 8.76616 116.626 8.19415 114.482 8.19415C111.324 8.19415 108.294 9.44894 106.061 11.6825C103.827 13.916 102.573 16.9453 102.573 20.104C102.573 23.2628 103.827 26.2921 106.061 28.5256C108.294 30.7592 111.324 32.0139 114.482 32.0139C116.626 32.0139 118.203 31.4373 119.314 30.4421V31.8093L126.392 31.7954ZM114.482 24.922C113.527 24.922 112.593 24.6388 111.799 24.1083C111.005 23.5778 110.385 22.8237 110.019 21.9413C109.653 21.0589 109.557 20.0879 109.743 19.1509C109.928 18.2138 110.388 17.3529 111.062 16.6767C111.737 16.0006 112.597 15.5397 113.534 15.3522C114.471 15.1647 115.442 15.2591 116.325 15.6234C117.208 15.9877 117.963 16.6055 118.495 17.3989C119.027 18.1923 119.312 19.1255 119.314 20.0808C119.314 21.3631 118.805 22.5931 117.9 23.5007C116.994 24.4084 115.765 24.9195 114.482 24.922Z" fill="#0072BC"/>
<path d="M100.568 31.7954V16.4255C100.568 9.41259 92.3507 5.30621 86.4539 10.5613C85.9813 10.9759 85.5355 11.4201 85.1192 11.8913C82.5568 7.96164 76.7856 6.59439 72.335 10.5613V8.74292H65.2663V31.7954H72.3443V16.9836C72.3443 16.0511 72.7148 15.1569 73.3741 14.4976C74.0334 13.8382 74.9277 13.4678 75.8601 13.4678C76.7925 13.4678 77.6868 13.8382 78.3461 14.4976C79.0055 15.1569 79.3759 16.0511 79.3759 16.9836V31.7954H86.4539V16.9836C86.487 16.0727 86.8722 15.2101 87.5283 14.5774C88.1845 13.9446 89.0605 13.5911 89.972 13.5911C90.8835 13.5911 91.7595 13.9446 92.4157 14.5774C93.0718 15.2101 93.457 16.0727 93.4901 16.9836V31.7954H100.568Z" fill="#0072BC"/>
<path d="M63.2619 8.74292H56.1839V31.7954H63.2619V8.74292Z" fill="#0072BC"/>
<path d="M47.1015 16.9836V31.7954H54.1749V16.4255C54.1749 9.41259 45.9575 5.30621 40.0653 10.5613V8.74292H32.9873V31.7954H40.0653V16.9836C40.0984 16.0727 40.4836 15.2101 41.1397 14.5774C41.7959 13.9446 42.6719 13.5911 43.5834 13.5911C44.4949 13.5911 45.3709 13.9446 46.0271 14.5774C46.6832 15.2101 47.0684 16.0727 47.1015 16.9836Z" fill="#0072BC"/>
<path d="M20.3845 31.7954C23.1923 31.788 25.8831 30.6697 27.8689 28.6847C29.8548 26.6997 30.9743 24.0094 30.9829 21.2016V9.93344L40.9071 0H39.67L30.9829 8.69641V7.47333L38.447 0H37.2192L30.9829 6.2363V4.84116L35.8241 0H34.5824L30.9829 3.60413V2.24153L33.2198 0H31.9874L30.9829 1.00451V0.265078H23.9049V8.0872L16.8687 15.128V0.265078H9.78135V21.1923C9.78135 21.5178 9.78135 21.834 9.82786 22.1549L0.480377 31.5257H1.71741L9.99062 23.2524C10.065 23.6245 10.158 23.9872 10.265 24.3407L3.07535 31.5257H4.31238L10.5998 25.2382C10.7373 25.5567 10.8925 25.8672 11.0649 26.1683L5.70752 31.5257H6.94455L11.5067 26.9728C11.6694 27.2193 11.8369 27.4379 12.0182 27.6844L8.16298 31.5396H9.40001L12.5716 28.368C13.5645 29.4505 14.7719 30.3144 16.1171 30.9045C17.4622 31.4946 18.9156 31.798 20.3845 31.7954ZM23.9049 21.2016C23.9012 22.1329 23.5296 23.025 22.8711 23.6835C22.2125 24.3421 21.3204 24.7137 20.3891 24.7173C19.8478 24.7166 19.314 24.5902 18.8298 24.3481C18.3456 24.106 17.9242 23.7548 17.5988 23.3222L23.9049 17.0161V21.2016ZM16.8687 16.3651L23.9049 9.32423V10.6961L16.8687 17.7277V16.3651ZM16.8687 18.9647L23.9049 11.9238V13.319L16.8687 20.3598V18.9647ZM16.8687 21.5736L23.9049 14.556V15.7791L17.1384 22.5456C17.0071 22.2358 16.9224 21.9082 16.8873 21.5736H16.8687Z" fill="#0072BC"/>
<path d="M141.153 14.2165L146.473 8.89174L146.506 8.83593C146.208 8.6308 145.898 8.44592 145.576 8.28252C142.26 6.57579 138.246 7.44543 135.461 10.5613V8.74292H128.397V31.7954H135.475V16.9836C135.483 16.0547 135.858 15.1666 136.517 14.512C137.176 13.8573 138.066 13.4888 138.995 13.4864C139.113 13.4795 139.231 13.4795 139.349 13.4864L139.502 13.5097H139.567C139.936 13.5703 140.292 13.6896 140.623 13.8631C140.809 13.9666 140.986 14.0848 141.153 14.2165Z" fill="#0072BC"/>
</g>
<defs>
<clipPath id="clip0_3_2">
<rect width="146.039" height="32" fill="white" transform="translate(0.480377)"/>
</clipPath>
</defs>
</svg>
